{
  "asset": {
    "version": "2.0",
    "generator": "THREE.GLTFExporter r174"
  },
  "scenes": [
    {
      "name": "AuxScene",
      "nodes": [
        12
      ]
    }
  ],
  "scene": 0,
  "nodes": [
    {
      "translation": [
        -59.1150016784668,
        -17.200000762939453,
        -7.5
      ],
      "extras": {
        "isHole": false
      },
      "mesh": 0
    },
    {
      "children": [
        0
      ]
    },
    {
      "translation": [
        -59.1150016784668,
        -17.200000762939453,
        -7.5
      ],
      "scale": [
        1.01,
        1.01,
        1.06
      ],
      "extras": {
        "isHole": true
      },
      "mesh": 1
    },
    {
      "children": [
        2
      ]
    },
    {
      "translation": [
        -59.1150016784668,
        -17.200000762939453,
        -7.5
      ],
      "scale": [
        1.01,
        1.01,
        1.06
      ],
      "extras": {
        "isHole": true
      },
      "mesh": 2
    },
    {
      "children": [
        4
      ]
    },
    {
      "translation": [
        -59.1150016784668,
        -17.200000762939453,
        -7.5
      ],
      "scale": [
        1.01,
        1.01,
        1.06
      ],
      "extras": {
        "isHole": true
      },
      "mesh": 3
    },
    {
      "children": [
        6
      ]
    },
    {
      "rotation": [
        0,
        0.3826834323650898,
        0,
        0.9238795325112867
      ],
      "scale": [
        0.8381527114240215,
        -0.8381527114240215,
        0.8381527114240215
      ],
      "children": [
        1,
        3,
        5,
        7
      ]
    },
    {
      "children": [
        8
      ]
    },
    {
      "translation": [
        -0.027226290981875678,
        -0.010160691040119296,
        0.02722630864462161
      ],
      "children": [
        9
      ]
    },
    {
      "children": [
        10
      ]
    },
    {
      "children": [
        11
      ]
    }
  ],
  "bufferViews": [
    {
      "buffer": 0,
      "byteOffset": 0,
      "byteLength": 102816,
      "target": 34962,
      "byteStride": 12
    },
    {
      "buffer": 0,
      "byteOffset": 102816,
      "byteLength": 68544,
      "target": 34962,
      "byteStride": 8
    },
    {
      "buffer": 0,
      "byteOffset": 171360,
      "byteLength": 102816,
      "target": 34962,
      "byteStride": 12
    },
    {
      "buffer": 0,
      "byteOffset": 274176,
      "byteLength": 537408,
      "target": 34962,
      "byteStride": 12
    },
    {
      "buffer": 0,
      "byteOffset": 811584,
      "byteLength": 358272,
      "target": 34962,
      "byteStride": 8
    },
    {
      "buffer": 0,
      "byteOffset": 1169856,
      "byteLength": 537408,
      "target": 34962,
      "byteStride": 12
    },
    {
      "buffer": 0,
      "byteOffset": 1707264,
      "byteLength": 468576,
      "target": 34962,
      "byteStride": 12
    },
    {
      "buffer": 0,
      "byteOffset": 2175840,
      "byteLength": 312384,
      "target": 34962,
      "byteStride": 8
    },
    {
      "buffer": 0,
      "byteOffset": 2488224,
      "byteLength": 468576,
      "target": 34962,
      "byteStride": 12
    },
    {
      "buffer": 0,
      "byteOffset": 2956800,
      "byteLength": 18576,
      "target": 34962,
      "byteStride": 12
    },
    {
      "buffer": 0,
      "byteOffset": 2975376,
      "byteLength": 12384,
      "target": 34962,
      "byteStride": 8
    },
    {
      "buffer": 0,
      "byteOffset": 2987760,
      "byteLength": 18576,
      "target": 34962,
      "byteStride": 12
    }
  ],
  "buffers": [
    {
      "byteLength": 3006336,
      "uri": "data:application/octet-stream;base64,"
    }
  ],
  "accessors": [
    {
      "bufferView": 0,
      "componentType": 5126,
      "count": 8568,
      "max": [
        116.9800033569336,
        31.280332565307617,
        16
      ],
      "min": [
        33.369998931884766,
        9.119999885559082,
        -1
      ],
      "type": "VEC3"
    },
    {
      "bufferView": 1,
      "componentType": 5126,
      "count": 8568,
      "max": [
        116.9800033569336,
        30.770000457763672
      ],
      "min": [
        9.119999885559082,
        -15
      ],
      "type": "VEC2"
    },
    {
      "bufferView": 2,
      "componentType": 5126,
      "count": 8568,
      "max": [
        1,
        1,
        1
      ],
      "min": [
        -1,
        -1,
        -1
      ],
      "type": "VEC3"
    },
    {
      "bufferView": 3,
      "componentType": 5126,
      "count": 44784,
      "max": [
        32.491451263427734,
        30.812183380126953,
        16
      ],
      "min": [
        17.9378604888916,
        8.58883285522461,
        -1
      ],
      "type": "VEC3"
    },
    {
      "bufferView": 4,
      "componentType": 5126,
      "count": 44784,
      "max": [
        32.17932891845703,
        30.312137603759766
      ],
      "min": [
        9.2073335647583,
        -15
      ],
      "type": "VEC2"
    },
    {
      "bufferView": 5,
      "componentType": 5126,
      "count": 44784,
      "max": [
        1,
        1,
        1
      ],
      "min": [
        -1,
        -1,
        -1
      ],
      "type": "VEC3"
    },
    {
      "bufferView": 6,
      "componentType": 5126,
      "count": 39048,
      "max": [
        18.65999984741211,
        30.767107009887695,
        16
      ],
      "min": [
        -0.5,
        8.912893295288086,
        -1
      ],
      "type": "VEC3"
    },
    {
      "bufferView": 7,
      "componentType": 5126,
      "count": 39048,
      "max": [
        30.767107009887695,
        30.110000610351562
      ],
      "min": [
        -0.5,
        -15
      ],
      "type": "VEC2"
    },
    {
      "bufferView": 8,
      "componentType": 5126,
      "count": 39048,
      "max": [
        1,
        1,
        1
      ],
      "min": [
        -1,
        -1,
        -1
      ],
      "type": "VEC3"
    },
    {
      "bufferView": 9,
      "componentType": 5126,
      "count": 1548,
      "max": [
        118.93710327148438,
        35.082862854003906,
        16
      ],
      "min": [
        52.279998779296875,
        -0.7071067690849304,
        -1
      ],
      "type": "VEC3"
    },
    {
      "bufferView": 10,
      "componentType": 5126,
      "count": 1548,
      "max": [
        118.93710327148438,
        34.400001525878906
      ],
      "min": [
        -0.7071067690849304,
        -15
      ],
      "type": "VEC2"
    },
    {
      "bufferView": 11,
      "componentType": 5126,
      "count": 1548,
      "max": [
        1,
        1,
        1
      ],
      "min": [
        -1,
        -1,
        -1
      ],
      "type": "VEC3"
    }
  ],
  "materials": [
    {
      "pbrMetallicRoughness": {
        "baseColorFactor": [
          0.031896033067374104,
          0.174647403645279,
          0.29613827078752575,
          1
        ],
        "metallicFactor": 0.9,
        "roughnessFactor": 0.2
      },
      "extras": {
        "isHole": false
      }
    },
    {
      "pbrMetallicRoughness": {
        "baseColorFactor": [
          0,
          0,
          0,
          0.5
        ],
        "metallicFactor": 0.9,
        "roughnessFactor": 0.2
      },
      "alphaMode": "BLEND",
      "extras": {
        "isHole": true
      }
    }
  ],
  "meshes": [
    {
      "primitives": [
        {
          "mode": 4,
          "attributes": {
            "POSITION": 0,
            "TEXCOORD_0": 1,
            "NORMAL": 2
          },
          "material": 0
        }
      ]
    },
    {
      "primitives": [
        {
          "mode": 4,
          "attributes": {
            "POSITION": 3,
            "TEXCOORD_0": 4,
            "NORMAL": 5
          },
          "material": 1
        }
      ]
    },
    {
      "primitives": [
        {
          "mode": 4,
          "attributes": {
            "POSITION": 6,
            "TEXCOORD_0": 7,
            "NORMAL": 8
          },
          "material": 1
        }
      ]
    },
    {
      "primitives": [
        {
          "mode": 4,
          "attributes": {
            "POSITION": 9,
            "TEXCOORD_0": 10,
            "NORMAL": 11
          },
          "material": 1
        }
      ]
    }
  ]
}